<svg xmlns="http://www.w3.org/2000/svg" width="24" height="24" viewBox="0 0 24 24" fill="none">
  <path d="M6 11a6 6 0 0 1 12 0" stroke="currentColor" stroke-width="2.2" stroke-linecap="round"/>
  <path d="M7 12v4a2 2 0 0 0 2 2h1v-7H9a2 2 0 0 0-2 2Z"
        stroke="currentColor" stroke-width="2.2" stroke-linecap="round" stroke-linejoin="round"/>
  <path d="M17 12v4a2 2 0 0 1-2 2h-1v-7h1a2 2 0 0 1 2 2Z"
        stroke="currentColor" stroke-width="2.2" stroke-linecap="round" stroke-linejoin="round"/>
  <path d="M10.5 18.5c.6.7 1.4 1 2.3 1 1.6 0 2.8-.9 2.8-2"
        stroke="currentColor" stroke-width="2.2" stroke-linecap="round"/>
</svg>
